<?xml version="1.0" encoding="UTF-8" standalone="no"?>
<svg
   xmlns:dc="http://purl.org/dc/elements/1.1/"
   xmlns:cc="http://creativecommons.org/ns#"
   xmlns:rdf="http://www.w3.org/1999/02/22-rdf-syntax-ns#"
   xmlns:svg="http://www.w3.org/2000/svg"
   xmlns="http://www.w3.org/2000/svg"
   xmlns:sodipodi="http://sodipodi.sourceforge.net/DTD/sodipodi-0.dtd"
   xmlns:inkscape="http://www.inkscape.org/namespaces/inkscape"
   id="Layer_1"
   style="enable-background:new 0 0 64 64;"
   version="1.1"
   viewBox="0 0 64 64"
   xml:space="preserve"
   sodipodi:docname="iconSelected.svg"
   inkscape:version="0.92.4 (5da689c313, 2019-01-14)"><metadata
     id="metadata841"><rdf:RDF><cc:Work
         rdf:about=""><dc:format>image/svg+xml</dc:format><dc:type
           rdf:resource="http://purl.org/dc/dcmitype/StillImage" /><dc:title></dc:title></cc:Work></rdf:RDF></metadata><defs
     id="defs839" /><sodipodi:namedview
     pagecolor="#ffffff"
     bordercolor="#666666"
     borderopacity="1"
     objecttolerance="10"
     gridtolerance="10"
     guidetolerance="10"
     inkscape:pageopacity="0"
     inkscape:pageshadow="2"
     inkscape:window-width="1920"
     inkscape:window-height="1017"
     id="namedview837"
     showgrid="false"
     inkscape:zoom="13.28125"
     inkscape:cx="33.656471"
     inkscape:cy="32"
     inkscape:window-x="-8"
     inkscape:window-y="-8"
     inkscape:window-maximized="1"
     inkscape:current-layer="Layer_1" /><style
     type="text/css"
     id="style829">
	.st0{fill:#134563;}
</style><g
     id="g834"
     style="fill:#552200"><g
       id="Icon-Location"
       transform="translate(232.000000, 376.000000)"
       style="fill:#552200"><path
         class="st0"
         d="M-200-320.3l-0.9-1.1c-0.6-0.8-15.9-18.7-15.9-29.4c0-9.3,7.6-16.8,16.8-16.8     s16.8,7.6,16.8,16.8c0,10.7-15.3,28.7-15.9,29.4L-200-320.3L-200-320.3z M-200-365.3c-8,0-14.4,6.5-14.4,14.4     c0,8.4,11.1,22.7,14.4,26.8c3.3-4.1,14.4-18.3,14.4-26.8C-185.6-358.8-192-365.3-200-365.3L-200-365.3z"
         id="Fill-55"
         style="fill:#552200" /><path
         class="st0"
         d="M-200-344.4c-3.5,0-6.4-2.9-6.4-6.4s2.9-6.4,6.4-6.4s6.4,2.9,6.4,6.4S-196.5-344.4-200-344.4     L-200-344.4z M-200-354.8c-2.2,0-4,1.8-4,4s1.8,4,4,4c2.2,0,4-1.8,4-4S-197.8-354.8-200-354.8L-200-354.8z"
         id="Fill-56"
         style="fill:#552200" /></g></g></svg>